<?xml version="1.0" encoding="iso-8859-1"?>
<!-- Generator: Adobe Illustrator 19.0.0, SVG Export Plug-In . SVG Version: 6.00 Build 0)  -->
<svg xmlns="http://www.w3.org/2000/svg" xmlns:xlink="http://www.w3.org/1999/xlink" version="1.1" id="Layer_1" x="0px" y="0px" viewBox="0 0 360.26 360.26" style="enable-background:new 0 0 360.26 360.26;" xml:space="preserve" width="512" height="512">
<g>
	<path style="fill:#E8E8E8;" d="M112.5,360.26c-45.983,0-83.26-37.276-83.26-83.26V0h144.52v209.704   c0,17.693,14.343,32.037,32.036,32.037h65.964c32.729,0,59.26,26.531,59.26,59.26s-26.531,59.26-59.26,59.26H112.5z"/>
	<g>
		<path style="fill:#C3C6C8;" d="M59.061,60.5c-4.142,0-7.5-3.358-7.5-7.5V20.438c0-4.142,3.358-7.5,7.5-7.5    c4.142,0,7.5,3.358,7.5,7.5V53C66.561,57.142,63.204,60.5,59.061,60.5z"/>
		<path style="fill:#C3C6C8;" d="M101.5,60.5c-4.142,0-7.5-3.358-7.5-7.5V20.438c0-4.142,3.358-7.5,7.5-7.5    c4.142,0,7.5,3.358,7.5,7.5V53C109,57.142,105.642,60.5,101.5,60.5z"/>
		<path style="fill:#C3C6C8;" d="M143.937,60.5c-4.142,0-7.5-3.358-7.5-7.5V20.438c0-4.142,3.358-7.5,7.5-7.5s7.5,3.358,7.5,7.5V53    C151.437,57.142,148.08,60.5,143.937,60.5z"/>
	</g>
	<path style="fill:#FF6361;" d="M29.24,260.74V277c0,45.983,37.276,83.26,83.26,83.26h16.26   C128.76,305.297,84.203,260.74,29.24,260.74z"/>
	<path style="fill:#FF6361;" d="M283.776,242.961c-14,15.297-22.546,35.668-22.546,58.039s8.546,42.742,22.546,58.039   c26.967-5.555,47.243-29.428,47.243-58.039S310.743,248.516,283.776,242.961z"/>
	<rect x="29.24" y="53" style="fill:#FF6361;" width="144.52" height="51.434"/>
	<path style="fill:#C3C6C8;" d="M53.057,198.76c-1.633,0-3.277-0.531-4.656-1.625c-3.245-2.574-3.79-7.291-1.215-10.537l12-15.13   c2.573-3.245,7.29-3.791,10.537-1.215c3.245,2.574,3.789,7.291,1.215,10.537l-12,15.13C57.457,197.787,55.268,198.76,53.057,198.76   z"/>
	<path style="fill:#C3C6C8;" d="M137.765,250.463c-2.859,0-5.59-1.643-6.841-4.419l-9-19.961c-1.703-3.776-0.022-8.217,3.754-9.92   c3.775-1.703,8.217-0.023,9.92,3.754l9.001,19.961c1.703,3.776,0.022,8.217-3.754,9.92   C139.843,250.249,138.795,250.463,137.765,250.463z"/>
	<path style="fill:#C3C6C8;" d="M117.759,148.302c-3.141,0-6.066-1.987-7.114-5.13c-1.31-3.93,0.814-8.177,4.744-9.487l20-6.667   c3.929-1.31,8.176,0.813,9.487,4.744c1.31,3.93-0.814,8.177-4.744,9.487l-20,6.667   C119.345,148.177,118.545,148.302,117.759,148.302z"/>
	<path style="fill:#C3C6C8;" d="M180.136,329.834c-2.365,0-4.693-1.116-6.151-3.201c-2.375-3.394-1.548-8.07,1.845-10.445   l20.963-14.667c3.393-2.375,8.071-1.548,10.445,1.845c2.374,3.394,1.548,8.07-1.846,10.445l-20.963,14.667   C183.121,329.395,181.621,329.834,180.136,329.834z"/>
</g>















</svg>
