<?xml version="1.0" encoding="iso-8859-1"?>
<!-- Generator: Adobe Illustrator 18.0.0, SVG Export Plug-In . SVG Version: 6.00 Build 0)  -->
<!DOCTYPE svg PUBLIC "-//W3C//DTD SVG 1.1//EN" "http://www.w3.org/Graphics/SVG/1.1/DTD/svg11.dtd">
<svg version="1.1" id="Capa_1" xmlns="http://www.w3.org/2000/svg" xmlns:xlink="http://www.w3.org/1999/xlink" x="0px" y="0px"
	 viewBox="0 0 118.89 118.89" style="enable-background:new 0 0 118.89 118.89;" xml:space="preserve">
<g>
	<path style="fill-rule:evenodd;clip-rule:evenodd;fill:#F9AF46;" d="M3.316,61.633l13.201,1.934l0.059-0.119
		c1.324,0.301,2.841,0.415,4.453,0.415l45.995,1.329l-0.003,0.218l22.416,0.877l-0.001-0.123l20.5,0.886
		c4.158-0.005,7.644-2.833,8.655-6.674c0.252-0.956,0.361-2.206,0.264-3.189c-0.451-4.525-4.263-8.066-8.914-8.065l-20.498,0.881
		V49.88l-22.422,0.811l0.001,0.104l0.001,0.149l-45.989,1.314c-1.782-0.002-3.435,0.121-4.844,0.494l-0.135-0.246L3.317,55.103
		C3.382,61.808,3.322,52.844,3.316,61.633z"/>
	<polygon style="fill-rule:evenodd;clip-rule:evenodd;fill:#21A58D;" points="81.342,34.253 74.881,22.513 74.906,22.511 
		71.956,17.186 71.942,17.186 64.163,3.071 48.074,3.067 67.026,48.907 67.009,50.936 89.442,49.992 89.442,48.916 84.293,39.584 
		84.354,39.584 81.407,34.254 	"/>
	<polygon style="fill-rule:evenodd;clip-rule:evenodd;fill:#21A58D;" points="89.473,66.154 67.01,65.191 67.02,66.831 
		48.044,115.823 64.135,115.823 69.975,104.536 70.028,104.534 72.876,99.198 72.744,99.201 72.722,99.199 80.158,84.81 
		80.236,84.811 83.012,79.48 82.911,79.477 89.435,66.842 	"/>
	<polygon style="fill-rule:evenodd;clip-rule:evenodd;fill:#21A58D;" points="7.973,37.82 0.015,35.912 3.319,55.035 3.317,55.103 
		16.228,52.707 	"/>
	<polygon style="fill-rule:evenodd;clip-rule:evenodd;fill:#21A58D;" points="3.318,61.756 0,82.052 7.961,80.145 16.62,63.466 
		3.316,61.633 	"/>
	<path style="fill-rule:evenodd;clip-rule:evenodd;fill:#F9AF46;" d="M81.76,104.539c1.471,0.001,2.661-1.195,2.659-2.674
		c0-1.465-1.185-2.661-2.657-2.66l-9.021-0.011l-2.713,5.341L81.76,104.539z"/>
	<path style="fill-rule:evenodd;clip-rule:evenodd;fill:#F9AF46;" d="M92.383,79.479l-9.456-0.002l-2.782,5.354l12.239-0.018
		c1.464,0.001,2.645-1.197,2.644-2.668C95.029,80.678,93.85,79.482,92.383,79.479z"/>
	<path style="fill-rule:evenodd;clip-rule:evenodd;fill:#F9AF46;" d="M92.395,34.254l-11.06-0.006l2.986,5.335l8.073,0.001
		c1.465,0,2.644-1.194,2.645-2.674C95.042,35.438,93.862,34.256,92.395,34.254z"/>
	<path style="fill-rule:evenodd;clip-rule:evenodd;fill:#F9AF46;" d="M83.612,22.518c1.47-0.002,2.669-1.202,2.666-2.667
		c0.003-1.473-1.193-2.665-2.667-2.663l-11.655-0.002l2.941,5.353L83.612,22.518z"/>
</g>
<g>
</g>
<g>
</g>
<g>
</g>
<g>
</g>
<g>
</g>
<g>
</g>
<g>
</g>
<g>
</g>
<g>
</g>
<g>
</g>
<g>
</g>
<g>
</g>
<g>
</g>
<g>
</g>
<g>
</g>
</svg>
